<svg version="1.0" xmlns="http://www.w3.org/2000/svg"
 width="1304.000000pt" height="1324.000000pt" viewBox="0 0 1304.000000 1324.000000"
 preserveAspectRatio="xMidYMid meet" class="logo">
<metadata>
</metadata>
<g transform="translate(0.000000,1324.000000) scale(0.100000,-0.100000)"
fill="#000000" stroke="none">
<path class="logo" d="M6827 12804 c-3 -3 -3 -12 -1 -19 6 -14 -30 -20 -171 -31 -45 -4 -73
-11 -78 -20 -5 -9 -24 -14 -51 -14 -34 0 -50 -6 -74 -30 -24 -22 -41 -30 -70
-30 -29 0 -39 -5 -47 -22 -6 -14 -25 -27 -50 -34 -23 -6 -41 -18 -43 -27 -4
-22 30 -23 61 -2 14 9 52 15 107 16 93 1 132 18 108 47 -10 11 -8 17 7 28 22
16 25 17 45 4 13 -8 13 -13 2 -31 -16 -25 -16 -25 33 -42 34 -12 40 -12 56 4
20 20 118 24 539 22 126 -1 202 2 172 6 -71 9 -85 31 -57 85 18 35 18 36 1 36
-8 0 -41 14 -74 30 -61 30 -62 30 -235 30 -95 0 -176 -3 -180 -6z"/>
<path d="M5926 12554 c-21 -12 -34 -13 -50 -6 -26 11 -76 -10 -76 -33 0 -7 -3
-20 -6 -29 -10 -27 86 -22 109 5 17 19 20 20 43 4 21 -14 30 -14 62 -4 48 16
77 43 69 63 -8 20 -60 21 -80 1 -13 -13 -16 -13 -21 0 -7 19 -13 18 -50 -1z"/>
<path d="M5650 12480 c-30 -4 -71 -12 -90 -19 -19 -6 -52 -11 -73 -11 -21 0
-48 -5 -60 -12 -12 -6 -35 -15 -52 -19 -73 -18 -218 -83 -237 -106 -6 -7 -21
-13 -34 -13 -13 0 -24 -5 -24 -10 0 -13 50 -2 71 16 8 8 24 14 35 14 11 0 24
4 30 9 5 6 27 14 49 20 43 10 91 26 142 48 17 7 40 13 51 13 11 0 36 7 55 15
20 8 49 15 66 15 16 0 42 7 57 15 16 8 52 15 79 15 36 0 46 3 35 10 -16 11
-19 11 -100 0z"/>
<path d="M6820 12464 c-22 -8 -82 -13 -162 -13 -83 -1 -141 -6 -165 -15 -21
-7 -81 -19 -133 -26 -119 -15 -139 -30 -42 -30 55 0 74 -4 78 -15 5 -11 21
-15 63 -14 l56 1 -34 14 c-44 20 -28 38 35 39 25 1 49 6 52 12 12 18 52 25 67
13 20 -16 19 -22 -5 -48 -26 -27 -9 -37 29 -17 23 12 66 15 193 15 142 0 169
3 201 19 21 11 43 24 50 29 7 6 23 12 37 14 25 4 25 4 -7 21 -26 14 -56 17
-155 16 -75 -1 -137 -7 -158 -15z"/>
<path d="M6295 12258 c-11 -7 -54 -15 -95 -19 -153 -14 -262 -39 -390 -90 -30
-12 -68 -23 -85 -26 -16 -3 -44 -11 -62 -19 -17 -8 -44 -14 -61 -14 -16 0 -35
-6 -42 -14 -6 -8 -26 -17 -43 -19 -22 -3 -15 -4 19 -5 30 -1 64 4 80 13 16 8
43 15 60 15 18 0 45 7 60 15 16 8 45 15 65 15 19 0 40 5 47 12 14 14 76 38
117 45 17 3 35 10 41 15 7 5 52 13 100 19 49 5 105 14 124 19 19 6 61 10 93
10 32 0 68 5 80 12 12 6 65 15 117 18 91 7 89 7 -55 8 -98 1 -157 -3 -170 -10z"/>
<path d="M6345 11986 c-16 -12 -48 -16 -145 -16 -94 0 -130 -4 -144 -15 -11
-8 -30 -15 -42 -15 -12 0 -27 -6 -33 -14 -8 -9 -35 -14 -84 -14 -43 0 -87 -7
-109 -16 -21 -9 -49 -16 -63 -16 -41 0 -76 -28 -73 -58 4 -36 -67 -83 -133
-90 -27 -2 -49 -8 -49 -12 0 -5 -12 -13 -27 -18 -25 -9 -23 -10 24 -11 28 -1
55 4 58 9 10 16 55 12 55 -5 0 -9 -9 -15 -23 -15 -12 0 -28 -9 -35 -20 -7 -11
-22 -20 -35 -20 -12 0 -31 -7 -41 -15 -11 -8 -31 -15 -45 -16 -14 0 -39 -9
-56 -19 -59 -37 -127 -70 -145 -70 -10 0 -31 -6 -47 -14 -73 -35 -100 -46
-131 -52 -18 -4 -35 -11 -38 -15 -3 -5 -14 -9 -25 -9 -11 0 -27 -7 -35 -15 -9
-8 -24 -15 -33 -15 -10 0 -24 -7 -31 -15 -7 -8 -27 -15 -44 -15 -17 0 -40 -7
-50 -15 -11 -8 -28 -15 -38 -15 -10 0 -37 -13 -60 -30 -22 -16 -48 -30 -57
-30 -9 0 -25 -7 -35 -15 -11 -8 -36 -15 -55 -15 -22 0 -73 -18 -131 -46 -94
-45 -128 -61 -192 -88 -55 -23 -162 -78 -178 -91 -8 -7 -22 -15 -30 -19 -8 -3
-28 -15 -45 -26 -16 -11 -37 -23 -45 -27 -8 -4 -20 -14 -26 -22 -10 -13 -16
-13 -37 -2 -20 11 -29 11 -53 -2 -16 -9 -38 -24 -49 -34 -11 -10 -36 -30 -55
-43 -19 -14 -61 -49 -93 -79 -53 -50 -79 -69 -117 -87 -8 -4 -61 -54 -117
-111 -56 -56 -107 -103 -114 -103 -6 0 -51 -40 -100 -90 -48 -49 -95 -90 -103
-90 -22 0 -28 17 -16 40 6 11 8 20 5 20 -13 0 -135 -134 -135 -148 0 -20 -50
-84 -140 -177 -42 -44 -92 -107 -110 -140 -18 -33 -37 -63 -43 -66 -5 -4 -7
-13 -5 -20 2 -7 14 3 27 24 12 20 27 37 32 37 5 0 9 8 9 19 0 11 46 63 108
122 59 57 117 116 129 131 11 15 31 29 44 30 34 4 36 -31 4 -66 -14 -15 -25
-33 -25 -40 0 -8 -7 -19 -15 -26 -8 -7 -15 -20 -15 -29 -1 -22 -103 -131 -124
-131 -8 0 -18 -11 -22 -25 -3 -14 -19 -36 -34 -48 -15 -13 -33 -34 -39 -46 -9
-15 -18 -20 -32 -16 -14 5 -19 2 -19 -13 0 -11 -7 -22 -15 -26 -9 -3 -15 -18
-15 -36 0 -32 -35 -74 -71 -85 -12 -4 -19 -16 -19 -33 0 -28 -53 -122 -69
-122 -16 0 -45 -55 -52 -100 -14 -91 -49 -153 -96 -171 -18 -6 -23 -16 -23
-43 0 -18 -7 -39 -15 -46 -8 -7 -15 -25 -15 -41 0 -36 -49 -142 -104 -223 -49
-74 -63 -96 -71 -116 -4 -8 -11 -22 -16 -30 -5 -8 -14 -27 -20 -42 -6 -16 -15
-28 -20 -28 -5 0 -9 -24 -9 -54 0 -35 -5 -58 -15 -66 -10 -8 -15 -31 -15 -71
0 -55 -26 -129 -51 -145 -5 -3 -9 -13 -9 -23 0 -22 -31 -51 -54 -51 -15 0 -17
5 -12 28 3 15 10 49 16 77 6 27 15 54 20 59 6 6 10 24 10 42 0 17 7 37 15 44
8 7 15 25 15 40 0 15 7 33 15 40 20 16 20 69 0 76 -20 8 -20 87 0 104 8 7 15
22 15 34 0 12 7 31 15 42 8 10 15 31 15 46 0 28 37 110 52 116 4 2 8 14 8 27
0 12 7 28 15 35 8 7 15 21 15 31 0 10 20 38 45 61 25 23 45 52 45 63 0 11 14
33 30 49 19 19 30 40 30 57 0 15 5 31 10 34 6 4 17 22 25 40 7 19 29 50 49 69
19 19 37 44 40 54 4 11 24 39 46 63 41 46 51 83 24 93 -17 6 -54 -9 -54 -23 0
-5 -13 -24 -30 -42 -16 -19 -30 -38 -30 -43 0 -4 -14 -25 -30 -46 -16 -21 -30
-45 -30 -53 0 -9 -6 -20 -13 -24 -17 -11 -43 -53 -50 -84 -4 -14 -18 -38 -32
-53 -14 -15 -25 -32 -25 -39 0 -7 -14 -26 -30 -44 -17 -18 -30 -35 -30 -39 0
-3 -13 -26 -30 -51 -17 -24 -30 -57 -30 -74 0 -17 -6 -32 -15 -35 -8 -4 -15
-13 -15 -21 0 -8 -13 -32 -29 -52 -15 -20 -31 -46 -35 -58 -4 -13 -12 -23 -17
-23 -5 0 -9 -9 -9 -21 0 -22 -27 -78 -47 -94 -6 -5 -13 -21 -15 -35 -2 -17 -9
-25 -23 -25 -27 0 -34 54 -10 71 9 7 15 20 13 29 -3 19 -68 -87 -68 -111 0
-12 -32 -66 -50 -84 -17 -17 -40 -77 -40 -105 0 -18 -7 -38 -15 -45 -8 -7 -15
-26 -15 -42 0 -17 -6 -42 -14 -56 -8 -15 -18 -45 -22 -67 -11 -50 -26 -51 -38
-4 -7 27 -5 44 8 69 9 18 16 56 16 85 0 28 5 56 11 62 7 7 14 33 16 60 2 26
11 55 18 64 8 8 15 27 15 41 0 14 7 31 15 38 8 7 15 17 15 23 0 6 7 18 16 28
12 13 16 38 16 94 -1 42 -3 79 -5 82 -7 6 -37 -57 -37 -77 0 -10 -7 -23 -15
-30 -8 -7 -15 -23 -15 -35 0 -13 -7 -25 -15 -29 -8 -3 -15 -13 -15 -22 0 -9
-6 -28 -14 -42 -8 -15 -17 -35 -20 -44 -3 -10 -12 -18 -21 -18 -24 0 -30 30
-12 62 9 17 17 38 17 48 0 10 4 22 10 25 14 9 12 35 -2 35 -14 -1 -48 -66 -48
-91 0 -9 -7 -24 -15 -35 -8 -10 -15 -27 -15 -36 0 -9 -7 -30 -15 -47 -8 -17
-22 -45 -30 -62 -8 -17 -15 -41 -15 -53 0 -12 -7 -31 -15 -42 -8 -10 -15 -33
-15 -51 0 -17 -7 -38 -15 -47 -8 -8 -15 -30 -15 -48 -1 -18 -7 -44 -15 -58 -8
-14 -14 -37 -15 -51 0 -14 -7 -34 -15 -45 -8 -10 -15 -28 -15 -40 0 -11 -7
-29 -15 -40 -8 -10 -15 -31 -15 -45 0 -14 -7 -34 -15 -45 -8 -10 -15 -31 -15
-45 0 -14 -7 -34 -15 -45 -8 -10 -15 -31 -15 -45 0 -15 -6 -32 -14 -39 -8 -6
-16 -21 -18 -33 -2 -14 -10 -22 -23 -22 -16 0 -21 8 -23 37 -2 20 2 47 8 58 6
12 14 69 16 128 4 68 10 115 20 129 8 12 14 39 14 60 0 21 7 47 15 57 8 11 15
32 15 47 0 14 7 32 15 39 8 7 15 22 15 34 0 12 7 31 15 42 8 10 15 33 15 50 0
17 7 37 15 44 8 7 15 22 15 34 1 11 7 32 15 46 8 14 14 41 15 61 0 20 7 42 15
49 8 7 15 21 15 32 0 11 6 32 13 46 8 15 21 42 30 60 9 19 17 41 17 51 0 9 7
26 15 37 8 10 15 27 15 37 0 11 6 31 13 45 8 15 21 42 30 60 9 19 17 42 17 52
0 9 7 23 15 30 8 7 15 27 15 45 0 18 7 38 15 45 8 7 15 25 15 40 0 15 7 33 15
40 17 14 20 40 5 40 -31 0 -89 -53 -90 -82 0 -9 -11 -30 -25 -45 -23 -26 -26
-26 -36 -10 -16 27 -29 20 -29 -17 0 -18 -7 -39 -15 -46 -8 -7 -15 -20 -15
-30 0 -10 -7 -23 -16 -31 -13 -10 -17 -10 -25 2 -13 21 -11 63 6 85 8 10 15
29 15 41 0 12 6 28 13 35 17 17 27 86 17 118 -7 23 -8 23 -9 3 -1 -12 -8 -28
-16 -37 -8 -8 -15 -28 -15 -44 0 -16 -7 -35 -15 -42 -8 -7 -15 -21 -15 -31 0
-9 -6 -24 -13 -31 -7 -7 -20 -26 -28 -43 -47 -92 -58 -110 -72 -113 -17 -4
-27 26 -27 85 0 23 -4 45 -10 48 -13 8 -13 62 0 70 5 3 10 14 10 25 0 10 7 20
15 24 9 3 15 18 15 40 0 19 7 41 15 50 8 8 15 21 15 29 0 8 7 20 15 27 8 7 15
23 15 37 0 13 7 26 15 29 8 4 15 18 15 34 0 15 7 47 15 70 8 23 15 68 14 99
-1 48 -2 52 -9 27 -5 -16 -13 -32 -17 -35 -4 -3 -16 -24 -27 -46 -10 -22 -22
-47 -27 -55 -5 -8 -12 -22 -15 -30 -3 -8 -9 -22 -14 -30 -5 -8 -23 -43 -40
-77 -16 -35 -34 -63 -40 -63 -5 0 -10 -18 -10 -39 0 -22 -4 -43 -10 -46 -5 -3
-10 -17 -10 -31 0 -14 -7 -27 -15 -30 -8 -4 -15 -18 -15 -33 0 -15 -6 -35 -14
-46 -7 -11 -16 -32 -20 -47 -7 -30 -41 -39 -64 -16 -29 29 -5 108 34 108 9 0
14 11 14 35 0 44 23 90 51 106 17 9 20 17 15 43 -5 23 -2 37 9 46 8 7 15 18
15 25 0 7 7 18 15 25 9 7 15 29 15 55 0 26 6 48 15 55 9 7 15 29 15 54 l0 41
-35 -40 c-26 -30 -35 -49 -35 -77 0 -24 -10 -52 -30 -81 -16 -25 -30 -56 -30
-70 0 -13 -7 -30 -15 -37 -8 -7 -15 -20 -15 -29 0 -10 -7 -26 -15 -37 -8 -10
-15 -29 -15 -40 0 -12 -6 -27 -14 -33 -8 -7 -18 -26 -21 -42 -4 -16 -11 -31
-16 -34 -5 -4 -9 -19 -9 -34 0 -16 -7 -34 -15 -41 -8 -7 -15 -25 -15 -39 0
-15 -7 -36 -15 -47 -8 -10 -15 -29 -15 -41 0 -12 -6 -34 -14 -50 -7 -15 -21
-46 -31 -68 -9 -22 -23 -53 -31 -68 -8 -16 -14 -43 -14 -62 0 -18 -7 -38 -15
-45 -20 -16 -19 -47 1 -58 12 -7 15 -18 11 -38 -6 -35 -24 -89 -43 -127 -8
-16 -14 -39 -14 -52 0 -14 -9 -29 -20 -35 -11 -6 -20 -19 -20 -30 0 -22 -16
-35 -25 -20 -3 5 -10 10 -14 10 -9 0 -29 -71 -40 -143 -4 -26 -13 -53 -19 -59
-7 -7 -12 -41 -12 -81 0 -39 -6 -80 -14 -95 -29 -57 -46 -104 -46 -128 0 -14
-12 -41 -28 -59 -23 -30 -29 -49 -39 -147 -13 -131 -25 -198 -39 -218 -11 -19
-23 -139 -28 -290 -2 -63 -9 -230 -16 -370 -6 -140 -11 -264 -10 -275 0 -11 4
-132 8 -270 4 -137 11 -257 16 -265 10 -14 26 -147 26 -205 -1 -33 18 -83 37
-103 7 -7 13 -35 13 -61 0 -26 7 -56 15 -67 8 -10 15 -37 15 -60 0 -22 7 -49
15 -60 8 -10 15 -27 15 -36 0 -9 6 -29 14 -45 32 -64 46 -105 46 -136 0 -18 7
-41 15 -51 8 -11 15 -40 15 -65 1 -25 7 -57 15 -71 8 -14 15 -41 15 -60 0 -19
7 -44 15 -54 8 -11 15 -37 15 -57 0 -21 6 -50 14 -66 8 -15 22 -55 32 -88 10
-33 25 -65 32 -70 21 -17 11 -70 -13 -70 -13 0 -21 8 -23 22 -2 12 -10 27 -18
33 -8 7 -14 20 -14 30 0 10 -7 23 -15 30 -9 8 -15 30 -15 60 0 30 -6 52 -15
60 -8 7 -15 27 -15 45 0 18 -7 38 -15 45 -8 7 -15 23 -15 36 0 17 -6 23 -27
26 -19 2 -29 10 -31 23 -2 11 -10 34 -18 52 -8 17 -14 39 -14 48 0 9 -7 23
-15 31 -9 10 -15 35 -15 67 0 30 -7 60 -15 71 -8 11 -15 31 -15 45 0 14 -7 35
-15 45 -9 11 -15 42 -15 70 0 29 -7 59 -15 70 -8 11 -15 36 -15 57 0 20 -7 53
-15 74 -9 20 -16 58 -16 83 0 132 -5 199 -17 219 -6 12 -12 30 -12 40 0 10 -7
27 -15 37 -12 16 -15 61 -15 237 0 180 -3 219 -15 229 -10 8 -15 31 -15 71 0
32 -4 61 -10 64 -13 8 -13 41 1 63 9 14 8 25 -4 48 -11 22 -16 58 -15 128 0
53 -2 100 -6 103 -11 11 -6 -1009 5 -1057 6 -25 14 -92 19 -150 4 -58 12 -120
18 -138 6 -18 12 -61 13 -95 2 -69 32 -143 59 -150 10 -3 21 -19 25 -38 4 -19
14 -43 21 -54 8 -11 14 -29 14 -42 0 -12 5 -25 10 -28 16 -10 12 -55 -5 -55
-8 0 -15 7 -15 15 0 8 -9 19 -19 25 -11 5 -22 20 -24 32 -3 18 -5 16 -5 -7 -1
-16 5 -41 13 -55 8 -14 14 -40 15 -58 0 -18 7 -40 15 -48 8 -9 15 -30 15 -48
0 -19 7 -39 15 -46 8 -7 15 -23 15 -35 0 -13 7 -36 15 -51 8 -16 15 -43 15
-61 0 -27 12 -59 42 -113 4 -8 11 -22 14 -30 3 -8 13 -33 21 -55 38 -97 74
-176 91 -193 6 -7 12 -23 12 -36 0 -12 7 -31 15 -42 8 -10 15 -31 15 -47 0
-15 13 -46 30 -69 16 -22 30 -48 30 -56 0 -8 14 -34 30 -59 17 -24 30 -48 30
-53 0 -10 32 -72 41 -80 6 -5 28 -51 70 -145 12 -27 33 -64 45 -82 13 -17 24
-36 24 -42 0 -6 4 -11 9 -11 5 0 13 -10 17 -23 4 -12 10 -24 13 -27 18 -14 81
-98 81 -109 0 -6 4 -11 8 -11 5 0 21 -24 36 -52 38 -73 47 -88 76 -117 40 -41
90 -108 90 -120 0 -6 4 -11 9 -11 5 0 13 -13 19 -28 5 -15 33 -54 61 -87 28
-32 51 -61 51 -65 0 -3 41 -49 91 -101 50 -52 137 -143 192 -204 135 -147 149
-160 244 -238 45 -37 83 -71 85 -75 2 -4 23 -25 48 -46 49 -43 138 -124 240
-219 128 -119 146 -134 224 -192 79 -60 127 -112 162 -174 10 -19 32 -48 48
-65 95 -104 152 -156 167 -156 19 0 102 -53 145 -94 16 -14 35 -26 42 -26 7 0
26 -16 43 -35 17 -19 48 -42 70 -51 21 -10 39 -21 39 -25 0 -4 10 -9 23 -13
13 -3 44 -24 69 -46 26 -22 51 -40 57 -40 13 0 104 -62 141 -97 13 -12 33 -23
43 -23 10 0 20 -7 23 -15 4 -8 12 -15 19 -15 6 0 21 -8 33 -17 11 -10 30 -25
43 -33 12 -8 41 -29 65 -47 66 -49 117 -79 144 -86 42 -9 100 -33 112 -45 7
-7 22 -12 34 -12 12 0 27 -7 34 -15 7 -8 27 -15 46 -15 18 0 53 -7 78 -15 60
-20 447 -19 474 1 9 7 40 14 68 14 64 0 137 31 152 64 10 22 16 24 84 24 40 0
82 2 93 4 15 2 21 -3 23 -25 3 -27 16 -35 27 -17 3 6 21 10 39 10 19 0 39 7
46 15 7 9 29 15 55 15 26 0 48 6 55 15 7 9 29 15 50 15 43 0 97 27 105 52 7
20 68 68 88 68 8 0 36 20 63 45 26 25 54 45 63 45 9 0 25 17 35 38 10 20 24
50 32 65 8 16 14 36 14 46 0 18 71 91 89 91 7 0 20 19 30 43 10 23 28 51 40
61 11 11 21 27 21 36 0 10 7 23 15 30 8 7 15 21 15 31 0 9 7 24 15 33 8 8 15
32 15 53 0 21 8 52 17 68 23 41 22 250 -1 318 -9 26 -16 69 -17 95 -1 43 -1
45 -11 20 -14 -40 -42 -36 -63 9 -34 76 -50 108 -62 121 -7 7 -13 20 -13 28 0
8 -10 25 -21 37 -12 12 -27 36 -35 52 -7 17 -24 43 -38 59 -15 16 -26 34 -26
39 0 5 -13 24 -30 41 -16 17 -62 66 -102 110 -63 68 -215 196 -233 196 -3 0
-18 12 -33 27 -50 51 -138 88 -206 88 -47 1 -71 6 -101 25 -22 13 -41 28 -43
32 -2 4 -13 8 -25 8 -20 -1 -20 -2 -4 -11 9 -5 17 -19 17 -29 0 -37 -58 -25
-128 25 -34 25 -68 45 -76 45 -7 0 -19 7 -26 15 -7 8 -20 15 -29 15 -9 0 -25
6 -36 13 -53 36 -73 26 -30 -14 28 -27 34 -76 10 -86 -18 -6 -102 23 -126 43
-8 8 -35 14 -59 14 -26 0 -51 6 -62 17 -17 15 -21 15 -57 -2 l-39 -17 -62 38
c-34 22 -69 44 -78 49 -10 6 -35 23 -58 38 -29 19 -51 27 -80 25 -32 -1 -52 8
-108 46 -81 55 -114 59 -64 6 18 -19 44 -42 57 -50 69 -44 141 -109 141 -127
0 -15 -26 -18 -35 -3 -3 5 -17 10 -29 10 -13 0 -29 7 -36 15 -7 8 -21 15 -31
15 -10 0 -20 4 -24 9 -3 6 -29 21 -58 35 -28 14 -64 36 -79 50 -15 14 -33 26
-40 26 -7 1 -29 14 -48 30 -19 17 -40 30 -47 30 -19 0 -89 39 -108 60 -11 13
-26 18 -39 14 -22 -5 -90 19 -101 36 -9 15 -42 12 -76 -6 -39 -20 -69 -10 -69
23 0 14 -13 41 -30 60 -16 18 -30 45 -30 58 0 34 -20 42 -41 17 -17 -22 -49
-30 -49 -13 0 4 -61 70 -135 145 -83 83 -135 144 -135 156 0 11 -4 20 -9 20
-5 0 -13 10 -17 22 -3 12 -19 39 -35 61 -16 22 -29 46 -29 52 0 7 -7 15 -15
19 -8 3 -15 16 -15 30 0 13 -7 26 -15 30 -8 3 -15 14 -15 24 0 11 -7 25 -15
32 -8 7 -15 19 -15 28 0 19 -38 100 -51 108 -5 3 -9 12 -9 20 0 8 -9 24 -20
36 -20 22 -20 22 -20 1 0 -11 7 -26 15 -33 24 -20 17 -90 -9 -90 -13 0 -56 41
-56 54 0 4 -12 23 -27 43 -29 38 -50 86 -62 143 -11 50 -32 80 -58 80 -32 0
-63 57 -63 117 0 33 -5 55 -15 63 -8 7 -15 23 -15 35 0 13 -7 25 -15 29 -9 3
-15 18 -15 36 0 17 -6 41 -14 53 -7 12 -16 49 -19 81 -3 32 -11 64 -16 69 -6
6 -11 26 -11 45 0 29 3 33 22 30 17 -2 24 -11 26 -31 2 -16 10 -31 18 -34 8
-3 14 -15 14 -28 0 -12 7 -28 15 -35 10 -8 15 -30 15 -61 0 -44 2 -49 22 -49
21 0 128 -99 128 -118 0 -14 32 -75 47 -90 7 -7 13 -22 13 -33 0 -11 8 -28 17
-37 9 -9 40 -48 68 -87 29 -38 62 -79 74 -89 11 -11 21 -26 21 -35 0 -9 17
-34 38 -56 21 -22 44 -50 51 -63 6 -12 17 -22 24 -22 6 0 33 -21 59 -47 41
-40 48 -44 48 -26 0 13 -25 45 -68 85 -37 34 -79 81 -92 103 -13 22 -48 66
-76 99 -29 32 -56 72 -60 89 -3 17 -17 42 -30 56 -26 28 -32 71 -11 71 8 0 22
-9 32 -20 10 -11 22 -20 27 -20 15 0 8 25 -15 50 -51 56 -97 118 -97 130 0 12
45 60 56 60 8 0 54 -52 54 -62 0 -4 14 -27 30 -50 17 -22 30 -45 30 -50 0 -5
10 -19 23 -31 12 -12 37 -44 56 -72 19 -27 48 -66 66 -85 18 -19 54 -69 81
-110 72 -111 113 -157 156 -179 14 -7 41 -34 59 -58 38 -53 82 -83 125 -83 16
0 39 -7 50 -15 10 -8 38 -15 60 -15 24 0 47 -6 54 -15 7 -8 25 -15 40 -15 15
0 33 -7 40 -15 7 -8 21 -15 31 -15 10 0 22 -6 26 -13 14 -24 57 -47 85 -47 17
0 31 -7 38 -20 6 -11 19 -20 30 -20 10 0 22 -4 25 -10 3 -5 14 -10 23 -10 14
1 14 2 -3 12 -11 7 -26 18 -33 25 -7 7 -18 13 -23 13 -5 0 -9 11 -9 23 0 22
-27 57 -44 57 -4 0 -34 20 -66 45 -32 25 -66 45 -75 45 -8 0 -18 6 -21 14 -3
8 -17 17 -31 20 -13 4 -62 45 -109 91 -46 47 -90 85 -98 85 -14 0 -186 175
-186 190 0 4 -20 30 -45 57 -25 26 -45 53 -45 59 0 6 -18 30 -40 53 -23 24
-40 52 -40 65 0 15 -7 26 -20 29 -29 7 -29 67 0 67 15 0 22 -9 27 -30 3 -16 9
-30 14 -30 4 0 11 -9 14 -21 10 -29 41 -59 63 -59 10 0 31 -14 47 -30 27 -29
65 -41 65 -21 0 16 40 23 55 11 8 -7 15 -20 15 -29 1 -21 70 -67 70 -46 0 8
-4 15 -9 15 -5 0 -12 13 -16 29 -3 15 -19 41 -35 56 -17 16 -30 35 -30 42 0 8
-12 13 -29 13 -32 0 -67 41 -57 66 7 19 33 18 45 -3 10 -17 10 -17 11 0 0 9
-40 59 -90 110 -49 50 -90 95 -90 98 0 3 -14 18 -30 32 -17 15 -30 32 -30 38
0 6 -13 28 -30 49 -17 21 -30 42 -30 48 0 5 -7 15 -15 22 -8 7 -15 21 -15 31
0 11 -4 19 -9 19 -5 0 -13 10 -17 22 -3 12 -19 39 -35 61 -16 22 -29 46 -29
52 0 7 -7 18 -15 25 -8 7 -15 25 -15 40 0 15 -7 33 -15 40 -8 7 -15 23 -15 35
0 12 -7 28 -15 35 -8 7 -15 20 -15 30 0 10 -7 23 -15 30 -8 7 -15 22 -15 34 0
11 -7 30 -15 40 -8 11 -15 34 -15 52 0 17 -7 37 -15 44 -8 7 -15 28 -15 47 0
18 -7 44 -15 56 -8 12 -17 49 -21 82 -4 33 -11 68 -16 78 -5 9 -9 64 -10 122
-1 74 -5 109 -15 116 -7 6 -13 25 -13 41 0 16 -7 39 -15 52 -12 19 -15 49 -13
142 3 111 4 119 23 119 17 0 20 -8 23 -57 2 -32 7 -58 12 -58 17 0 50 -79 50
-120 0 -23 5 -50 11 -61 7 -14 7 -29 0 -50 -10 -30 -3 -56 35 -131 8 -14 14
-46 14 -71 0 -31 5 -47 15 -51 8 -3 15 -18 15 -33 0 -15 7 -37 15 -47 8 -11
15 -32 15 -48 0 -15 5 -28 10 -28 6 0 10 15 10 34 0 19 5 38 10 41 15 9 12 41
-5 55 -8 7 -15 22 -15 34 0 11 -14 39 -30 60 -20 26 -30 51 -30 75 0 20 -7 45
-15 55 -11 15 -15 48 -15 122 0 65 -5 117 -15 144 -12 33 -15 92 -15 261 0
193 -2 219 -17 227 -18 10 -18 21 -13 162 1 47 9 97 16 112 8 15 14 44 14 65
l-1 38 -15 -27 c-16 -31 -24 -34 -41 -17 -7 7 -10 30 -6 60 5 45 4 49 -16 49
-17 0 -21 -6 -21 -29 0 -40 -47 -96 -66 -80 -8 6 -14 21 -14 32 0 16 -3 18
-12 9 -7 -7 -20 -12 -30 -12 -15 0 -18 8 -18 43 0 23 6 52 14 63 8 11 16 40
18 65 2 36 6 44 23 44 18 0 20 -7 21 -65 2 -96 3 -99 24 -56 21 42 27 111 10
121 -13 8 -13 52 1 61 7 4 10 38 7 93 -2 73 0 90 15 105 12 13 17 33 17 75 0
35 6 65 15 77 8 10 15 37 15 59 0 22 6 49 14 60 8 11 15 54 18 98 2 54 8 81
18 87 10 6 13 23 11 54 -2 35 2 49 18 63 12 9 21 23 21 30 0 18 19 16 26 -2
10 -25 24 -17 24 13 0 15 9 44 20 65 11 20 20 46 20 57 0 11 7 20 15 20 9 0
15 -9 15 -24 0 -22 19 -48 21 -29 0 4 2 19 3 32 2 14 8 27 14 29 7 2 12 13 12
25 0 11 8 29 17 39 14 16 15 24 4 53 -11 31 -10 38 14 74 14 22 25 47 25 54 0
8 12 30 28 50 15 19 32 43 39 53 12 18 13 18 28 0 8 -11 15 -29 15 -40 0 -11
7 -28 17 -38 16 -17 17 -17 29 4 32 58 54 103 54 114 0 22 34 77 63 102 15 13
27 32 27 42 0 10 7 25 15 34 8 8 15 20 15 26 0 6 20 38 45 70 25 32 45 63 45
69 0 5 6 14 14 18 8 4 17 28 20 51 3 24 9 49 15 55 5 7 11 26 13 42 2 24 8 31
31 33 23 3 27 8 27 37 0 35 37 104 56 105 7 0 15 -11 18 -25 12 -46 27 -27 20
25 -6 44 -4 53 17 75 27 28 67 33 75 10 13 -32 24 -13 24 40 0 40 4 57 15 61
8 4 15 11 15 16 0 5 17 31 37 57 43 54 99 79 134 61 25 -14 39 -5 39 24 0 12
7 31 15 42 8 10 15 34 15 52 0 29 14 47 105 137 81 79 105 109 105 129 0 23
-2 25 -19 16 -11 -5 -29 -10 -41 -10 -12 0 -42 -13 -67 -30 -24 -16 -48 -30
-52 -30 -5 0 -12 -15 -15 -33 -3 -19 -17 -44 -30 -56 -23 -22 -25 -22 -50 -6
-14 10 -26 21 -26 25 0 5 34 43 75 85 41 43 75 80 75 82 0 3 13 22 28 42 15
20 36 54 46 76 10 22 25 53 32 68 8 16 14 40 14 55 l0 26 -20 -22 c-11 -12
-20 -27 -20 -34 -1 -26 -36 -87 -61 -107 -22 -17 -29 -18 -43 -8 -14 10 -15
18 -7 40 25 64 8 75 -29 19 -35 -51 -81 -98 -105 -106 -23 -7 -145 -121 -145
-136 0 -4 -26 -30 -57 -56 -78 -65 -153 -142 -153 -157 0 -7 -47 -59 -104
-116 -58 -58 -107 -115 -111 -128 -3 -12 -10 -23 -15 -23 -6 0 -10 -10 -11
-22 0 -13 -11 -43 -24 -68 -13 -25 -28 -55 -34 -67 -5 -11 -15 -24 -20 -28 -6
-3 -11 -14 -11 -24 0 -9 -27 -46 -60 -82 -33 -35 -60 -69 -60 -75 0 -6 -13
-27 -30 -45 -16 -19 -30 -38 -30 -44 0 -5 -19 -30 -43 -55 -45 -48 -61 -71
-77 -107 -5 -13 -18 -23 -30 -23 -31 0 -26 45 10 90 17 21 30 42 30 46 0 5 21
32 45 59 25 28 45 55 45 60 0 6 14 24 30 42 17 18 30 38 30 45 0 8 16 30 36
49 46 44 116 148 112 167 -2 8 -19 -8 -41 -39 -53 -77 -70 -96 -94 -103 -18
-6 -20 -3 -15 21 7 41 67 114 153 188 49 42 66 63 87 110 5 11 48 59 96 107
47 48 86 94 86 101 0 7 25 38 56 67 31 30 86 86 123 124 36 38 116 120 177
182 61 62 124 133 140 156 37 55 226 244 283 283 24 17 60 39 80 51 21 11 53
31 72 45 43 31 156 89 173 89 7 0 44 20 82 45 37 25 73 45 78 45 24 0 116 54
121 72 4 10 16 18 28 18 12 0 31 7 41 15 11 8 29 15 40 15 12 1 37 14 56 30
19 17 39 30 46 30 6 0 17 7 24 15 7 8 20 15 30 15 10 0 23 7 30 15 7 8 23 15
35 15 13 0 25 7 29 15 3 8 12 15 21 15 16 0 60 25 83 47 8 8 38 13 72 13 52 0
80 8 140 42 8 4 22 11 30 14 8 3 27 12 42 20 14 8 39 14 56 14 16 0 35 7 42
15 18 22 90 20 90 -2 0 -25 -49 -63 -80 -63 -16 0 -30 -7 -34 -15 -3 -8 -16
-15 -29 -15 -13 0 -28 -5 -34 -11 -6 -6 -26 -14 -45 -18 -21 -4 -34 -14 -37
-26 -2 -11 -11 -25 -20 -32 -14 -11 -13 -12 9 -12 14 0 34 6 44 14 11 8 28 15
39 15 10 0 25 7 34 15 11 12 18 13 28 5 20 -17 9 -35 -33 -56 -89 -46 -105
-84 -18 -44 25 11 51 20 59 20 8 0 17 7 21 15 3 8 16 15 28 15 13 0 32 7 42
15 26 20 132 20 139 1 7 -18 -12 -36 -39 -36 -13 0 -25 -4 -28 -9 -9 -14 -85
-51 -105 -51 -10 0 -21 -7 -25 -15 -3 -8 -18 -15 -33 -15 -15 0 -37 -7 -47
-15 -11 -8 -40 -15 -65 -15 -25 0 -55 -7 -65 -15 -11 -8 -34 -15 -50 -15 -17
0 -40 -7 -50 -15 -11 -8 -30 -15 -42 -15 -12 0 -27 -7 -34 -15 -7 -8 -21 -15
-31 -15 -12 0 -19 -7 -19 -20 0 -31 -50 -70 -91 -70 -37 0 -93 -32 -158 -90
-18 -16 -38 -30 -42 -30 -16 0 -139 -94 -139 -106 0 -22 62 8 110 53 25 24 52
43 61 43 9 0 35 20 57 44 39 43 43 44 96 43 32 -1 68 5 88 15 43 22 69 31 90
33 10 1 29 10 42 19 14 9 34 16 44 16 11 0 31 9 45 20 14 11 40 20 60 20 19 0
40 7 47 15 27 32 78 6 65 -34 -3 -12 -17 -24 -31 -27 -25 -6 -31 -18 -14 -29
14 -9 0 -35 -19 -35 -21 0 -45 -36 -30 -46 6 -3 8 -17 5 -30 -5 -20 -3 -24 18
-24 13 0 29 7 36 15 7 8 23 15 37 15 13 0 26 -7 29 -15 8 -21 41 -19 48 3 5
16 17 18 73 18 61 -1 67 1 72 22 10 39 92 69 105 37 8 -21 23 -19 43 5 10 11
27 20 38 20 11 0 29 7 39 15 12 9 42 15 79 15 47 0 65 5 93 26 23 18 52 28 91
33 32 4 64 10 71 15 9 5 24 1 41 -12 19 -14 32 -17 42 -11 8 5 31 9 52 9 21 0
52 7 69 16 37 19 81 11 76 -14 -5 -27 -57 -46 -135 -50 -45 -3 -77 -9 -84 -18
-6 -8 -28 -14 -48 -14 -20 -1 -47 -7 -61 -15 -14 -8 -44 -14 -68 -15 -23 0
-54 -7 -67 -16 -17 -11 -36 -14 -57 -10 -21 3 -40 0 -52 -9 -11 -8 -28 -15
-38 -15 -9 0 -22 -9 -28 -20 -7 -13 -21 -20 -38 -20 -16 0 -37 -7 -48 -15 -10
-8 -26 -15 -35 -15 -9 0 -22 -7 -29 -15 -7 -8 -22 -15 -34 -15 -11 0 -30 -7
-40 -15 -11 -8 -26 -15 -33 -15 -23 0 -73 -43 -73 -61 0 -19 -52 -39 -99 -39
-15 0 -38 -15 -62 -40 -21 -22 -43 -40 -48 -40 -6 0 -33 -13 -59 -30 -27 -16
-54 -30 -59 -30 -6 0 -16 -7 -23 -15 -7 -8 -23 -15 -35 -15 -12 0 -28 -7 -35
-15 -7 -8 -25 -15 -41 -15 -19 0 -34 -9 -49 -30 -12 -16 -28 -30 -36 -30 -9 0
-22 -7 -30 -15 -9 -8 -24 -15 -33 -15 -10 0 -24 -7 -31 -15 -7 -8 -18 -15 -24
-15 -7 0 -27 -13 -46 -30 -20 -17 -47 -29 -63 -30 -29 0 -42 -8 -84 -52 -31
-33 -48 -35 -63 -9 -14 28 -13 39 8 45 17 6 48 46 35 46 -5 0 -23 -14 -42 -30
-18 -17 -38 -30 -42 -30 -7 0 -105 -67 -144 -98 -5 -4 -31 -19 -57 -32 -27
-13 -48 -27 -48 -31 0 -4 -13 -12 -30 -18 -16 -5 -30 -14 -30 -19 0 -5 -11
-14 -24 -20 -23 -10 -191 -136 -211 -157 -5 -7 -80 -74 -165 -151 -85 -76
-162 -148 -170 -159 -14 -20 -142 -167 -168 -194 -8 -8 -24 -30 -37 -50 -13
-20 -37 -51 -54 -69 -17 -18 -31 -36 -31 -38 0 -3 -20 -31 -45 -63 -25 -31
-45 -64 -45 -72 0 -8 -14 -27 -30 -43 -17 -16 -30 -34 -30 -40 0 -6 -20 -31
-43 -56 -24 -25 -47 -57 -51 -72 -3 -16 -11 -28 -16 -28 -6 0 -10 -8 -10 -19
0 -10 -7 -24 -15 -31 -8 -7 -15 -20 -15 -30 0 -10 -7 -23 -15 -30 -8 -7 -15
-21 -15 -31 0 -9 -7 -24 -15 -33 -8 -8 -15 -24 -15 -36 0 -11 -7 -23 -15 -26
-8 -4 -15 -14 -15 -23 0 -10 -7 -26 -15 -37 -8 -10 -15 -28 -15 -40 0 -11 -7
-29 -15 -40 -8 -10 -15 -41 -15 -68 0 -39 -5 -55 -25 -76 -14 -15 -27 -42 -30
-60 -2 -19 -11 -38 -20 -42 -8 -5 -15 -17 -15 -27 0 -10 -7 -35 -15 -54 -10
-25 -15 -70 -15 -140 0 -75 -4 -108 -15 -123 -8 -11 -15 -41 -15 -71 0 -31 -6
-57 -14 -66 -8 -7 -16 -25 -18 -38 -2 -20 -8 -24 -32 -22 l-28 2 6 -62 c4 -34
10 -65 12 -69 11 -18 24 -6 24 21 0 40 19 93 41 113 11 9 19 23 19 31 0 9 6
22 14 29 8 8 13 36 13 70 0 36 6 66 17 82 9 14 16 42 16 63 0 21 6 47 14 58 7
11 16 33 20 49 4 16 25 46 47 68 23 23 39 48 39 62 0 13 6 29 14 35 8 7 17 23
20 36 4 14 11 25 16 25 6 0 10 30 10 68 0 64 2 70 30 90 17 13 30 31 30 41 0
10 7 21 15 25 9 3 15 18 15 40 0 19 7 41 15 50 11 10 15 36 15 86 0 63 2 72
20 77 13 3 20 14 20 29 0 12 4 26 10 29 6 3 10 16 10 28 0 26 40 67 65 67 25
0 54 41 55 76 0 19 6 34 15 38 8 3 15 16 15 29 0 14 6 30 14 36 7 6 16 24 19
40 8 40 67 52 67 13 0 -9 4 -23 9 -30 8 -13 22 8 69 103 8 17 32 46 52 65 21
19 40 44 42 54 1 11 21 29 43 40 22 12 41 30 43 41 5 30 172 185 199 185 13 0
27 9 34 22 6 12 24 32 39 45 15 12 31 34 34 48 4 14 11 25 16 25 6 0 28 16 49
35 22 20 50 38 62 40 32 6 82 64 81 94 0 34 36 111 53 111 15 0 25 -22 25 -55
0 -13 5 -27 10 -30 11 -7 19 -1 115 88 43 39 65 53 74 47 18 -11 51 10 51 32
0 18 44 68 60 68 5 0 13 -7 18 -17 10 -17 15 -16 72 18 19 12 53 31 75 42 22
12 45 27 50 33 6 6 26 17 45 24 67 25 200 92 200 101 0 5 9 9 19 9 11 0 22 4
25 9 8 12 84 51 100 51 7 0 38 14 69 30 31 17 70 30 87 30 17 0 48 11 70 25
22 14 43 25 48 25 5 0 17 9 27 20 10 11 30 20 45 20 15 0 33 7 40 15 7 8 28
15 47 15 22 0 51 11 80 30 25 17 57 30 76 30 18 1 43 7 57 15 14 8 37 14 52
15 14 0 39 6 55 14 43 21 109 37 198 46 44 5 96 13 115 19 19 6 56 11 82 11
28 0 48 5 50 13 3 8 49 14 154 19 82 4 190 9 239 12 50 2 137 7 195 11 91 6
108 5 119 -9 11 -13 35 -16 127 -16 73 0 127 -5 151 -14 21 -8 81 -19 133 -25
158 -18 223 -29 255 -39 34 -12 112 -31 170 -42 49 -10 127 -38 139 -51 6 -5
22 -9 37 -9 15 0 32 -7 39 -15 7 -8 25 -15 39 -15 15 0 36 -7 47 -15 10 -8 31
-15 46 -15 15 0 33 -6 40 -13 7 -8 28 -17 47 -20 19 -4 48 -18 65 -31 17 -13
47 -26 66 -29 53 -8 109 -32 139 -59 58 -54 231 -178 248 -178 10 0 48 -27 83
-60 67 -62 84 -70 94 -45 8 23 29 18 56 -13 31 -34 105 -92 117 -92 15 0 173
-162 173 -177 0 -2 10 -17 22 -33 14 -20 31 -30 47 -30 29 0 81 -46 81 -71 0
-10 5 -21 10 -24 6 -3 35 -36 64 -73 30 -37 70 -85 90 -107 20 -22 39 -50 42
-62 3 -12 12 -24 20 -27 8 -3 14 -17 14 -30 0 -18 7 -27 23 -31 12 -3 30 -18
39 -33 26 -44 94 -139 122 -173 21 -25 26 -41 26 -84 0 -57 25 -105 92 -180
16 -16 28 -37 28 -45 0 -9 20 -55 45 -103 25 -48 45 -96 45 -105 0 -9 7 -26
15 -36 8 -11 15 -34 15 -50 0 -17 7 -40 15 -50 8 -11 15 -31 15 -45 0 -14 7
-35 15 -45 8 -11 15 -27 15 -37 0 -9 7 -22 15 -29 8 -7 15 -23 15 -35 0 -13 8
-38 17 -57 9 -18 22 -45 30 -60 7 -14 13 -37 13 -51 0 -13 7 -30 15 -37 8 -7
15 -27 15 -44 0 -17 7 -40 15 -50 8 -11 15 -40 15 -65 0 -25 7 -55 15 -65 8
-11 15 -36 15 -55 0 -20 7 -45 15 -55 8 -11 15 -32 15 -47 0 -14 7 -32 15 -39
10 -8 15 -30 15 -62 0 -27 6 -59 14 -71 20 -32 45 -188 47 -302 2 -55 8 -111
14 -125 7 -14 15 -86 19 -160 3 -74 10 -153 16 -175 12 -50 13 -625 1 -657 -5
-13 -12 -91 -15 -172 -4 -82 -14 -174 -21 -204 -8 -31 -15 -75 -15 -98 0 -25
-6 -47 -15 -54 -11 -9 -15 -33 -15 -92 0 -44 -5 -89 -12 -101 -6 -12 -15 -40
-19 -62 -4 -22 -17 -65 -29 -95 -13 -30 -25 -73 -28 -95 -2 -22 -11 -49 -18
-60 -8 -11 -14 -43 -14 -72 0 -41 -7 -66 -30 -106 -16 -30 -30 -63 -30 -73 0
-11 -7 -29 -15 -40 -8 -10 -15 -29 -15 -41 0 -24 -36 -99 -51 -109 -5 -3 -9
-16 -9 -29 0 -13 -6 -30 -12 -37 -17 -18 -45 -77 -52 -111 -4 -15 -11 -27 -16
-27 -6 0 -10 -11 -10 -25 0 -14 -7 -28 -15 -31 -8 -4 -15 -13 -15 -21 0 -8
-13 -32 -30 -53 -16 -21 -30 -44 -30 -52 0 -8 -11 -25 -25 -38 -13 -12 -29
-38 -35 -56 -7 -19 -16 -34 -21 -34 -5 0 -9 -6 -9 -14 0 -7 -7 -19 -15 -26 -8
-7 -15 -21 -15 -32 0 -16 -37 -74 -80 -125 -5 -7 -10 -16 -10 -21 0 -5 -9 -20
-20 -33 -25 -30 -28 -35 -65 -84 -35 -47 -52 -73 -64 -100 -5 -11 -41 -54 -81
-95 -105 -111 -160 -176 -160 -192 0 -15 -39 -56 -314 -336 -173 -177 -223
-222 -242 -222 -6 0 -15 -7 -18 -16 -4 -11 -13 -14 -31 -10 -21 5 -25 3 -25
-17 0 -28 -17 -47 -42 -47 -12 0 -18 -8 -18 -23 0 -19 -11 -28 -57 -47 -32
-13 -74 -38 -93 -56 -19 -18 -52 -44 -73 -58 -59 -40 -84 -66 -65 -66 9 0 30
13 46 30 17 16 34 30 37 30 4 0 27 14 52 30 24 17 50 30 57 30 8 0 16 7 20 15
3 8 15 15 26 15 27 0 25 -27 -3 -62 -24 -29 -92 -78 -108 -78 -5 0 -29 -19
-53 -42 -23 -24 -62 -56 -86 -73 -23 -16 -68 -54 -99 -82 -73 -68 -121 -103
-142 -103 -9 0 -39 -19 -66 -43 -52 -45 -66 -55 -127 -88 -22 -12 -46 -28 -54
-35 -7 -8 -22 -14 -32 -14 -10 0 -20 -6 -23 -13 -3 -7 -36 -29 -73 -48 -38
-19 -75 -40 -82 -46 -7 -7 -21 -13 -29 -13 -9 0 -24 -6 -32 -14 -9 -8 -43 -30
-76 -50 -48 -29 -55 -36 -35 -36 14 0 52 13 85 29 33 16 76 36 96 45 20 9 42
22 49 31 7 8 20 15 29 15 9 0 34 9 56 20 22 11 45 20 52 20 13 0 -29 -50 -43
-50 -15 -1 -62 -54 -66 -75 -2 -12 -13 -21 -26 -23 -12 -2 -22 -8 -22 -13 0
-24 63 13 96 56 14 19 30 35 35 35 12 0 110 61 130 81 10 10 16 25 16 34 -1
11 14 27 43 43 25 14 49 31 53 38 4 8 19 14 31 14 13 0 27 7 30 16 5 13 16 15
50 12 33 -4 52 0 73 13 15 10 38 19 49 19 12 0 27 7 34 15 8 10 30 15 61 15
40 0 54 5 81 30 54 50 62 56 93 76 16 10 47 36 69 56 46 45 63 47 72 13 5 -21
-1 -32 -28 -59 -54 -52 -128 -106 -146 -106 -9 0 -33 -15 -53 -33 -19 -18 -76
-60 -125 -92 -49 -33 -91 -63 -92 -68 -2 -4 -23 -16 -46 -27 -24 -10 -49 -26
-56 -35 -7 -8 -21 -15 -31 -15 -11 0 -19 -4 -19 -9 0 -5 -12 -14 -27 -20 -38
-14 -59 -32 -67 -58 -9 -29 -66 -63 -104 -63 -17 0 -47 -8 -67 -17 -31 -15
-35 -21 -35 -55 0 -33 -4 -39 -27 -44 -15 -4 -34 -13 -41 -21 -7 -7 -20 -13
-28 -13 -15 0 -54 -30 -54 -42 0 -14 46 2 122 43 139 73 219 109 242 109 13 0
26 7 30 15 3 8 11 15 19 15 7 0 24 12 38 26 13 14 38 32 56 41 17 8 47 30 65
49 18 18 40 34 48 34 9 0 22 6 28 12 10 10 17 10 33 0 19 -12 27 -9 73 22 28
20 80 61 116 91 36 30 70 55 76 55 6 0 17 7 24 15 7 8 21 15 32 15 10 0 32 13
48 30 16 16 35 30 43 30 7 0 26 14 42 30 16 17 39 30 52 30 23 0 64 21 91 47
7 7 19 13 25 13 7 0 23 10 37 23 14 13 46 34 73 47 26 13 47 27 47 32 0 4 7 8
15 8 8 0 15 -4 15 -9 0 -14 -102 -121 -115 -121 -6 0 -26 -13 -45 -30 -19 -16
-38 -29 -42 -30 -4 0 -36 -20 -72 -45 -37 -25 -71 -45 -76 -45 -6 0 -10 -4
-10 -8 0 -5 -8 -13 -19 -18 -10 -5 -32 -19 -47 -31 -92 -73 -114 -87 -161
-110 -42 -19 -54 -31 -61 -56 -5 -18 -17 -37 -28 -42 -39 -21 -104 -68 -104
-76 0 -4 -10 -11 -22 -15 -12 -3 -28 -13 -36 -20 -7 -8 -22 -14 -32 -14 -10 0
-22 -5 -25 -11 -4 -5 -17 -14 -28 -20 -23 -9 -31 -14 -105 -62 -24 -15 -46
-27 -50 -27 -4 0 -22 -14 -41 -30 -18 -17 -39 -30 -46 -30 -7 0 -18 -7 -25
-15 -7 -8 -20 -15 -30 -15 -10 0 -23 -7 -30 -15 -7 -8 -22 -15 -34 -15 -31 -1
-77 -42 -67 -59 8 -12 12 -12 25 1 9 9 35 19 58 23 24 3 62 15 85 27 43 21 87
18 65 -4 -17 -17 -15 -28 7 -28 10 0 21 7 25 15 3 8 16 15 30 15 13 0 26 7 30
15 3 9 18 15 37 15 20 0 45 11 69 30 22 17 50 30 66 30 16 1 40 7 54 15 14 8
44 14 68 15 31 0 53 8 84 30 22 17 47 30 55 30 7 0 13 4 13 9 0 5 12 14 28 20
35 15 71 36 85 50 6 6 23 11 38 11 15 0 29 7 33 15 3 8 17 15 31 15 14 0 25 4
25 8 0 4 19 20 43 35 23 15 69 52 102 82 32 30 64 55 70 55 7 0 37 22 67 49
79 68 113 91 137 91 26 0 26 -10 2 -56 -23 -43 -77 -93 -108 -100 -13 -4 -23
-9 -23 -13 0 -7 -96 -81 -105 -81 -4 0 -26 -19 -50 -42 -42 -38 -60 -51 -110
-78 -11 -6 -33 -19 -50 -30 -16 -11 -39 -24 -50 -29 -11 -5 -31 -20 -45 -33
-14 -14 -51 -41 -83 -62 -31 -21 -60 -42 -63 -47 -3 -5 -14 -9 -25 -9 -10 0
-19 -4 -19 -9 0 -5 -10 -13 -22 -17 -12 -3 -39 -19 -61 -35 -22 -16 -46 -29
-54 -29 -7 0 -13 -4 -13 -9 0 -5 -10 -13 -22 -17 -13 -4 -39 -19 -58 -33 -42
-32 -155 -91 -174 -91 -7 0 -19 -7 -26 -15 -7 -8 -20 -15 -30 -15 -10 0 -20
-7 -24 -15 -3 -8 -15 -15 -26 -15 -11 0 -23 -8 -27 -17 -9 -28 -85 -103 -103
-103 -9 0 -20 -4 -25 -9 -6 -5 -27 -14 -47 -20 -41 -13 -72 -41 -45 -41 8 0
28 8 45 17 31 18 62 13 62 -11 0 -8 -12 -19 -27 -25 -16 -6 -35 -15 -43 -19
-8 -5 -46 -24 -85 -42 -38 -18 -77 -37 -85 -41 -40 -22 -104 -49 -119 -50 -9
0 -33 -8 -55 -18 -34 -15 -37 -18 -22 -30 13 -11 22 -11 42 -2 14 6 33 11 43
11 10 0 24 7 31 15 7 8 25 15 40 15 15 0 33 7 40 15 7 8 22 15 34 15 11 0 30
7 40 15 11 8 27 15 37 15 9 0 22 7 29 15 7 8 26 15 42 15 16 0 31 6 34 15 4
10 21 15 53 15 25 0 55 7 65 15 11 8 27 15 37 15 9 0 19 7 23 15 3 8 14 15 24
15 11 0 25 7 32 15 7 8 21 15 32 15 11 0 26 7 34 15 9 8 28 15 44 15 16 0 31
4 34 9 8 12 84 51 100 51 7 0 19 7 26 16 20 23 74 15 78 -12 2 -16 -10 -27
-58 -52 -33 -18 -71 -32 -84 -32 -13 0 -29 -7 -36 -15 -7 -8 -23 -15 -36 -15
-13 0 -24 -4 -24 -9 0 -5 -13 -14 -28 -20 -15 -6 -41 -23 -56 -36 -16 -14 -37
-25 -46 -25 -10 0 -20 -7 -24 -15 -3 -8 -13 -15 -22 -15 -9 0 -27 -9 -41 -20
-23 -18 -23 -20 -6 -20 10 0 23 4 28 9 21 19 147 81 165 81 10 0 36 11 56 25
21 14 49 28 63 32 14 3 35 12 46 19 11 8 27 14 36 14 9 0 22 7 29 15 8 9 30
15 60 15 33 0 50 5 54 15 3 8 12 15 21 15 8 0 44 20 81 45 36 25 71 45 78 45
7 0 26 13 42 30 16 16 36 30 45 30 9 0 22 7 29 15 7 8 21 15 31 15 10 0 41 14
67 30 27 17 54 30 59 30 6 0 16 7 23 15 7 8 23 15 35 15 13 0 25 7 29 15 3 8
14 15 24 15 11 0 25 7 32 15 7 8 18 15 26 15 7 0 22 14 34 30 23 33 50 39 70
15 10 -12 6 -22 -20 -55 -17 -22 -35 -40 -38 -40 -4 0 -19 -10 -32 -22 -35
-32 -78 -60 -125 -83 -22 -11 -53 -32 -70 -47 -16 -16 -34 -28 -39 -28 -5 0
-24 -11 -42 -25 -18 -14 -43 -29 -56 -35 -13 -5 -30 -14 -38 -19 -8 -5 -22
-12 -30 -15 -8 -4 -28 -15 -45 -26 -16 -11 -37 -22 -45 -26 -8 -3 -22 -10 -30
-15 -8 -5 -35 -18 -60 -30 -25 -12 -64 -34 -88 -50 -24 -16 -49 -29 -57 -29
-7 0 -15 -4 -17 -8 -4 -11 -86 -52 -103 -52 -8 0 -15 -4 -15 -9 0 -5 -12 -14
-27 -19 l-28 -10 26 -1 c15 -1 40 6 55 14 16 8 36 15 44 15 9 0 20 4 25 9 17
16 205 111 219 111 7 0 19 7 26 15 7 8 23 15 36 15 13 0 24 4 24 10 0 10 80
50 100 50 14 0 121 74 145 100 10 11 24 20 32 20 8 0 24 10 36 21 12 12 36 28
54 35 17 8 34 18 38 24 3 5 12 10 20 10 15 0 118 67 123 81 2 5 12 9 22 9 10
0 21 4 24 9 3 5 18 12 32 15 14 4 44 27 67 51 22 25 49 45 59 45 11 0 33 13
51 30 18 16 37 30 44 30 7 0 46 33 87 73 92 89 99 95 131 107 14 5 25 14 25
19 0 5 10 11 22 13 13 2 24 11 26 23 2 11 8 24 12 29 11 11 60 -1 60 -14 0
-15 -95 -107 -119 -115 -12 -3 -21 -15 -21 -26 0 -15 7 -19 34 -19 19 0 36 6
39 13 2 7 22 21 43 32 56 28 86 52 98 78 7 12 31 32 54 45 31 17 42 30 42 47
0 30 56 84 90 86 40 3 44 4 68 19 12 8 22 20 22 25 0 19 150 165 168 165 7 0
12 4 12 10 0 15 57 41 74 34 10 -4 16 -1 16 7 0 18 129 161 184 204 14 11 26
30 26 43 0 12 7 25 15 28 8 4 15 11 15 16 0 5 20 36 45 68 25 32 45 63 45 69
0 6 13 24 29 40 16 17 32 38 35 48 10 29 69 90 95 98 22 7 23 5 16 -27 -4 -18
-13 -40 -21 -49 -8 -8 -14 -20 -14 -27 0 -10 -137 -187 -187 -242 -13 -14 -23
-29 -23 -34 0 -5 -11 -21 -24 -35 -14 -14 -54 -57 -90 -96 -36 -38 -66 -74
-66 -79 0 -17 -204 -216 -220 -216 -18 0 -80 -65 -80 -84 0 -6 -19 -26 -42
-44 -36 -28 -134 -115 -256 -229 -19 -18 -38 -33 -42 -33 -4 0 -40 -31 -81
-70 -41 -38 -80 -69 -86 -70 -15 0 -93 -69 -93 -81 0 -17 18 -9 60 26 23 19
47 35 54 35 7 0 25 14 41 30 16 17 34 30 39 30 6 0 32 21 58 46 47 46 78 53
78 19 0 -20 -81 -115 -98 -115 -7 0 -40 -27 -75 -60 -34 -33 -67 -60 -73 -60
-5 0 -23 -13 -39 -30 -16 -16 -35 -30 -42 -30 -7 0 -13 -4 -13 -9 0 -5 -9 -13
-21 -16 -26 -9 -59 -41 -59 -58 0 -20 -51 -61 -93 -76 -21 -7 -48 -23 -61 -36
-14 -13 -36 -27 -50 -31 -14 -3 -26 -10 -26 -15 0 -8 -115 -89 -127 -89 -3 0
-32 -20 -64 -45 -33 -25 -64 -45 -69 -45 -5 0 -24 -9 -42 -20 -19 -12 -51 -20
-76 -20 -39 0 -48 -5 -102 -60 -32 -32 -79 -69 -103 -80 -25 -12 -53 -30 -63
-41 -9 -10 -25 -19 -34 -19 -10 0 -20 -7 -24 -15 -3 -8 -16 -15 -29 -15 -14 0
-30 -7 -37 -15 -7 -8 -20 -15 -30 -15 -18 0 -82 -32 -171 -86 -31 -19 -63 -34
-72 -34 -8 0 -20 -7 -27 -15 -7 -8 -21 -15 -31 -15 -11 0 -19 -4 -19 -10 0 -5
-15 -14 -32 -19 -30 -8 -27 -9 28 -10 43 -1 65 3 74 14 7 8 27 15 45 15 18 0
38 7 45 15 7 8 23 15 35 15 13 0 25 7 29 15 3 8 16 15 30 15 13 0 26 7 30 15
3 8 16 15 30 15 13 0 26 7 30 15 3 8 17 15 32 15 14 0 46 14 71 30 24 17 50
30 57 30 8 0 19 7 26 15 7 8 25 15 40 15 15 0 33 7 40 15 7 8 19 15 27 15 8 0
32 14 53 30 21 17 43 30 50 30 7 0 18 8 25 17 10 13 29 17 86 17 86 1 117 16
117 59 0 33 18 57 43 57 11 0 19 4 19 9 0 5 12 13 28 19 15 5 39 21 52 35 28
30 42 33 60 13 9 -12 7 -17 -9 -28 -12 -7 -21 -18 -21 -25 0 -15 30 -3 100 38
67 40 96 46 105 19 8 -26 14 -21 -65 -63 -110 -58 -133 -71 -161 -96 -16 -13
-71 -45 -124 -72 -53 -27 -103 -55 -111 -64 -9 -8 -21 -15 -29 -15 -7 0 -15
-7 -19 -15 -3 -9 -18 -15 -39 -15 -19 0 -40 -7 -47 -15 -7 -8 -23 -15 -36 -15
-13 0 -24 -5 -24 -10 0 -6 -8 -13 -17 -17 -37 -12 -103 -45 -109 -54 -3 -5
-13 -9 -23 -9 -10 0 -24 -7 -31 -15 -7 -8 -23 -15 -35 -15 -12 0 -28 -7 -35
-15 -7 -8 -20 -15 -30 -15 -10 0 -20 -7 -24 -15 -3 -9 -18 -15 -39 -15 -19 0
-51 -7 -70 -15 -20 -8 -62 -15 -92 -15 -37 0 -62 -5 -71 -15 -9 -8 -23 -15
-33 -15 -9 0 -44 -13 -76 -30 -32 -16 -71 -30 -86 -30 -14 0 -32 -7 -39 -15
-7 -8 -23 -15 -35 -15 -12 0 -28 -7 -35 -15 -7 -8 -24 -15 -39 -15 -14 0 -35
-7 -45 -15 -11 -8 -36 -15 -55 -15 -20 0 -45 -7 -55 -15 -11 -9 -42 -15 -70
-15 -29 0 -59 -7 -70 -15 -11 -8 -37 -15 -58 -15 -26 0 -41 -5 -45 -15 -9 -26
3 -28 69 -15 35 7 83 15 108 17 25 3 54 12 65 19 11 8 40 14 65 14 25 1 56 7
70 15 14 8 43 14 65 15 22 0 53 7 69 15 15 8 42 15 60 15 17 1 42 7 56 15 14
8 52 14 86 15 42 0 65 5 74 15 7 8 28 15 47 15 25 0 45 9 68 29 21 18 49 31
79 35 26 4 58 18 75 32 24 20 40 24 90 24 54 0 61 2 61 20 0 29 34 42 111 42
65 0 69 1 69 22 0 32 40 66 77 66 17 0 36 7 43 15 7 8 23 15 35 15 13 0 25 7
29 15 3 8 16 15 28 15 13 1 34 7 48 15 14 8 53 14 91 15 57 0 72 4 107 30 29
21 42 38 42 54 0 35 96 96 151 96 17 0 37 7 45 15 9 8 26 15 39 15 29 0 45 26
45 73 0 39 34 77 68 77 12 0 31 13 44 31 20 27 27 30 60 26 26 -3 45 0 60 11
30 22 60 41 78 49 8 4 26 19 40 33 27 28 115 90 129 90 19 0 36 35 36 74 0 37
3 42 35 57 47 22 116 33 124 20 15 -24 66 18 92 77 8 18 26 38 39 44 14 6 25
15 25 19 0 14 64 69 81 69 19 0 44 27 53 56 4 12 16 26 29 31 27 13 180 154
173 160 -3 3 -15 -2 -28 -11 -28 -20 -47 -20 -54 -2 -3 8 28 49 79 102 47 49
104 111 127 139 24 27 72 76 109 109 36 33 78 78 92 101 14 22 36 49 47 59 12
11 22 27 22 37 0 10 12 24 27 31 16 8 30 24 33 38 6 32 67 124 110 170 65 67
98 118 114 173 9 31 20 58 25 61 5 4 30 42 56 85 25 44 53 85 61 92 9 7 20 22
25 34 5 11 13 27 17 35 30 54 42 85 42 111 0 24 6 32 30 40 25 9 30 16 30 45
0 22 -6 37 -15 40 -37 14 4 118 51 130 13 3 24 10 24 16 0 5 18 32 39 61 22
29 44 72 51 97 6 25 15 54 19 65 5 11 16 40 26 65 9 25 30 72 45 105 39 81 60
135 60 151 0 7 11 29 24 49 13 19 27 53 31 74 3 22 13 47 20 58 8 10 15 31 15
47 0 28 0 29 -20 11 -11 -10 -20 -27 -20 -38 0 -10 -6 -31 -14 -45 -8 -15 -17
-39 -21 -54 -3 -16 -12 -28 -20 -28 -9 0 -15 -10 -15 -24 0 -14 -5 -28 -10
-31 -16 -10 -25 25 -12 46 7 10 12 27 12 37 0 10 7 27 15 38 8 10 15 36 15 57
0 23 6 40 14 43 8 3 17 25 21 49 3 25 10 47 16 50 5 4 9 23 9 43 1 20 7 48 15
62 8 14 14 50 15 81 0 31 7 73 15 92 8 20 15 58 15 85 0 27 6 57 15 68 8 10
15 33 15 49 0 17 7 41 15 55 8 14 14 38 15 53 0 16 6 41 14 55 19 38 37 90 46
137 12 56 30 123 46 170 8 23 14 77 14 120 0 44 7 102 15 129 8 27 15 70 15
96 0 26 7 64 15 84 18 44 24 355 7 397 -7 18 -7 40 0 70 5 26 7 95 3 169 -6
104 -12 133 -31 170 -23 43 -24 53 -24 255 -1 163 -4 216 -15 235 -9 16 -14
55 -15 111 0 54 -6 100 -15 122 -8 20 -15 65 -15 99 -1 36 -7 74 -15 88 -8 14
-14 45 -15 70 0 25 -7 58 -15 74 -8 15 -15 54 -15 85 -1 31 -7 67 -15 81 -8
14 -15 43 -15 65 0 22 -7 58 -15 80 -8 22 -14 54 -15 71 0 17 -7 37 -15 44
-10 9 -15 32 -15 76 0 34 -4 65 -9 68 -11 7 -51 136 -51 164 0 11 -7 25 -15
32 -8 7 -15 22 -15 34 0 11 -7 30 -15 40 -8 11 -15 31 -15 45 0 14 -7 35 -15
45 -8 11 -15 34 -15 50 0 17 -7 40 -15 50 -8 11 -15 29 -15 40 0 12 -7 30 -15
40 -8 11 -15 30 -15 42 0 12 -8 37 -17 56 -9 18 -22 45 -30 60 -7 14 -13 40
-13 57 0 19 -6 34 -15 37 -21 9 -135 244 -135 280 0 23 -7 36 -25 48 -14 9
-27 30 -31 51 -3 19 -12 39 -20 46 -8 6 -14 18 -14 26 0 8 -7 21 -15 29 -8 9
-15 24 -15 35 0 10 -4 19 -9 19 -5 0 -18 17 -29 38 -10 20 -40 77 -66 125 -25
48 -46 94 -46 102 0 7 -10 22 -22 32 -30 24 -68 78 -68 96 0 8 -27 42 -60 77
-33 35 -60 70 -60 78 0 13 -18 42 -109 175 -18 26 -42 52 -53 58 -15 8 -18 17
-14 35 4 14 2 24 -4 24 -12 0 -59 50 -60 63 0 12 -38 54 -147 164 -51 51 -93
99 -93 106 0 8 -10 22 -22 30 -13 9 -60 51 -105 95 -78 74 -83 82 -83 120 0
40 -25 82 -49 82 -5 0 -11 -9 -14 -20 -3 -12 -14 -20 -26 -20 -11 0 -25 9 -31
20 -6 11 -16 20 -22 20 -6 0 -29 16 -51 36 -35 32 -44 36 -78 31 -26 -3 -42 0
-50 9 -6 8 -19 14 -28 14 -16 0 -31 14 -75 68 -16 21 -17 26 -5 49 12 23 11
27 -14 49 -29 25 -47 31 -47 15 0 -5 7 -14 15 -21 17 -14 20 -36 5 -45 -9 -6
-92 42 -98 58 -2 4 -13 7 -25 7 -21 0 -20 -2 7 -25 16 -14 35 -25 43 -25 7 0
13 -4 13 -9 0 -5 9 -12 19 -16 11 -3 21 -16 23 -28 2 -12 12 -23 23 -25 30 -6
65 -42 65 -68 0 -12 7 -24 15 -28 20 -7 19 -35 -1 -43 -11 -4 -24 5 -41 26
-28 36 -63 42 -63 11 0 -20 -4 -21 -62 -14 -49 6 -66 12 -84 33 -13 14 -24 34
-24 44 0 12 -8 17 -29 17 -19 0 -47 15 -83 45 -59 48 -73 53 -82 30 -7 -19
-35 -19 -42 0 -3 8 -15 17 -27 21 -11 3 -32 17 -46 30 -15 14 -38 24 -55 24
-21 0 -41 12 -74 45 -24 25 -50 45 -57 45 -7 0 -18 7 -25 15 -7 8 -27 15 -44
15 -29 0 -67 18 -91 44 -19 21 -76 46 -104 46 -14 0 -36 6 -47 14 -11 8 -36
16 -55 18 -30 3 -34 7 -37 34 -3 26 -8 32 -47 42 -26 7 -60 26 -80 46 -34 33
-36 34 -53 17 -9 -10 -24 -21 -32 -25 -8 -3 -5 -4 7 -2 13 2 34 -4 47 -15 13
-10 27 -19 30 -19 4 0 21 -10 39 -22 18 -13 34 -24 37 -26 2 -2 -1 -12 -8 -22
-10 -17 -10 -20 3 -20 8 0 24 -8 34 -17 38 -35 50 -43 64 -43 8 0 20 -7 27
-15 7 -8 18 -15 25 -15 6 0 31 -13 53 -30 23 -16 46 -30 51 -30 5 0 23 -12 40
-26 17 -14 46 -28 65 -31 20 -3 41 -12 47 -19 6 -8 15 -14 20 -14 5 0 44 -25
86 -55 43 -31 88 -60 101 -65 12 -5 35 -21 50 -35 15 -14 32 -25 39 -25 21 0
63 -61 63 -91 0 -22 5 -29 20 -29 11 0 33 -13 48 -30 16 -16 32 -30 36 -30 11
0 67 -42 110 -82 22 -21 48 -38 57 -38 10 0 25 -14 33 -32 20 -39 20 -38 -4
-38 -11 0 -20 -4 -20 -9 0 -15 58 -66 82 -71 14 -4 24 -15 26 -28 2 -12 13
-27 25 -34 12 -6 27 -17 34 -24 7 -7 23 -21 35 -31 13 -10 31 -32 40 -49 10
-17 45 -60 78 -95 33 -35 60 -71 60 -80 0 -9 7 -22 15 -29 8 -7 15 -18 15 -24
0 -6 20 -33 43 -59 24 -26 51 -70 61 -97 10 -27 24 -54 32 -61 8 -6 14 -19 14
-29 0 -10 6 -20 13 -23 7 -2 21 -22 32 -42 11 -21 30 -50 43 -63 12 -14 25
-36 28 -48 3 -12 12 -25 20 -28 8 -3 14 -13 14 -22 0 -9 14 -33 30 -54 17 -21
30 -45 30 -53 0 -8 7 -17 15 -21 8 -3 15 -16 15 -30 0 -13 7 -26 15 -30 20 -7
19 -35 -1 -43 -18 -7 -63 42 -64 68 0 9 -7 19 -15 23 -8 3 -15 13 -15 22 0 9
-13 33 -30 54 -16 21 -30 42 -30 47 0 5 -13 23 -30 41 -16 18 -30 42 -30 53 0
10 -4 19 -8 19 -5 0 -13 10 -19 23 l-10 22 -7 -22 c-4 -13 -13 -23 -19 -23
-14 0 -57 49 -57 66 0 7 -47 61 -105 120 -58 59 -105 114 -105 121 0 8 -13 19
-29 24 -19 7 -31 19 -33 32 -2 12 -11 23 -21 25 -11 2 -100 84 -198 183 -98
98 -186 179 -195 179 -9 0 -35 15 -58 33 -49 38 -120 87 -128 87 -3 0 -24 17
-45 38 -69 64 -131 112 -146 112 -8 0 -42 20 -75 45 -33 25 -65 45 -71 45 -10
0 -65 34 -81 50 -15 15 -71 40 -89 40 -11 0 -24 6 -28 13 -4 6 -21 19 -37 27
-16 8 -40 29 -54 47 -13 18 -30 33 -37 33 -7 0 -18 7 -25 15 -7 8 -25 15 -40
15 -15 0 -37 9 -50 20 -12 11 -50 33 -84 50 -33 17 -68 35 -76 40 -8 5 -36 18
-62 30 -27 12 -50 26 -54 31 -3 5 -18 9 -34 9 -16 0 -35 7 -44 15 -8 8 -23 15
-34 15 -11 0 -25 7 -32 15 -7 8 -21 15 -31 15 -10 0 -37 13 -61 29 -24 16 -59
31 -78 34 -19 2 -51 10 -70 17 -19 7 -39 15 -45 17 -5 2 -23 12 -40 23 -39 25
-36 25 -130 45 -44 10 -86 22 -94 28 -26 22 -87 39 -153 46 -37 3 -73 12 -80
19 -6 6 -31 12 -55 12 -24 0 -60 7 -80 15 -19 8 -47 15 -62 15 -14 1 -37 7
-51 15 -14 8 -38 14 -55 15 -16 0 -43 7 -59 15 -15 8 -45 15 -65 15 -20 0 -49
7 -65 15 -15 8 -41 15 -56 15 -15 0 -49 7 -76 15 -27 8 -68 15 -91 15 -23 0
-54 5 -70 12 -15 7 -86 16 -158 20 -71 5 -157 10 -190 13 -33 3 -166 8 -295
11 -204 5 -238 4 -255 -10z m1088 -311 c20 -8 52 -15 70 -15 19 0 40 -7 47
-15 8 -9 30 -15 59 -15 26 0 56 -7 67 -15 12 -9 43 -15 84 -15 37 0 77 -6 94
-15 15 -8 43 -15 61 -15 18 0 38 -7 45 -15 7 -8 27 -15 45 -15 18 0 38 -7 45
-15 7 -8 25 -15 39 -15 15 0 36 -7 47 -15 10 -8 28 -15 39 -15 11 0 29 -6 40
-14 41 -28 138 -76 155 -76 10 0 23 -7 30 -15 7 -8 24 -15 38 -15 13 0 47 -13
74 -30 26 -16 57 -30 67 -30 11 0 26 -6 33 -13 7 -8 32 -17 55 -20 36 -6 44
-4 53 13 13 23 37 25 64 5 11 -8 36 -15 57 -15 24 0 39 -5 43 -15 3 -8 14 -15
24 -15 11 0 25 -7 32 -15 7 -8 20 -15 30 -15 10 0 23 -7 30 -15 7 -8 20 -15
30 -15 10 0 23 -7 30 -15 7 -8 21 -15 31 -15 9 0 24 -7 33 -15 8 -8 19 -15 23
-15 5 0 22 -13 38 -30 16 -16 33 -30 38 -30 5 0 26 -13 47 -30 21 -16 43 -30
48 -30 6 0 15 -6 19 -13 4 -7 26 -24 48 -38 54 -35 91 -66 139 -116 24 -27 48
-43 63 -43 14 0 29 -11 40 -27 22 -34 54 -62 70 -63 18 0 169 -152 177 -178 4
-12 21 -29 37 -37 20 -11 29 -23 29 -41 0 -36 -24 -40 -57 -7 -31 32 -100 86
-123 97 -47 22 -90 55 -132 102 -29 32 -46 44 -68 44 -30 0 -119 51 -170 97
-14 13 -30 23 -36 23 -6 0 -19 9 -29 20 -10 11 -22 20 -28 20 -5 0 -30 15 -56
34 -25 18 -65 37 -88 41 -40 6 -144 71 -206 129 -15 14 -34 26 -41 26 -8 0
-19 7 -27 16 -17 21 -63 44 -88 44 -23 0 -58 34 -72 68 -7 18 -16 22 -56 22
-27 0 -61 7 -77 15 -15 8 -44 15 -62 15 -22 0 -37 6 -40 15 -4 9 -20 15 -43
15 -20 1 -47 7 -61 15 -14 8 -35 14 -46 15 -12 0 -27 7 -34 15 -7 8 -27 15
-44 15 -17 1 -42 7 -56 15 -14 8 -38 15 -55 15 -16 0 -41 7 -55 15 -14 8 -36
14 -49 15 -14 0 -32 6 -40 14 -11 9 -54 16 -136 19 -171 8 -327 27 -346 43 -8
8 -25 14 -37 14 -12 0 -31 13 -44 30 -12 17 -29 30 -37 30 -9 0 -25 7 -35 15
-11 8 -39 15 -63 15 -30 0 -45 5 -49 15 -5 12 -28 15 -118 15 -61 0 -143 7
-181 15 -39 8 -100 15 -137 15 -75 0 -98 6 -98 26 0 19 28 24 145 27 256 6
531 -2 568 -18z m-2293 -257 c0 -20 -32 -48 -55 -48 -13 0 -28 -7 -36 -16 -9
-11 -22 -14 -45 -9 -27 5 -35 2 -44 -15 -6 -11 -20 -20 -32 -20 -13 0 -39 -18
-64 -45 -27 -30 -49 -45 -66 -45 -31 0 -81 -24 -129 -62 -20 -15 -49 -28 -64
-28 -15 0 -33 -7 -40 -16 -8 -12 -20 -15 -38 -10 -34 8 -35 34 -3 42 14 3 27
12 30 20 3 8 16 14 29 14 14 0 30 7 37 15 7 8 17 15 23 15 6 0 25 13 42 30 48
46 189 120 230 120 13 0 36 7 51 15 16 8 37 15 46 15 9 0 20 4 23 10 13 21
105 38 105 18z m4418 -1347 c214 -213 242 -248 213 -266 -11 -6 -83 53 -151
123 -25 26 -89 87 -142 136 -114 106 -135 146 -66 131 18 -4 71 -49 146 -124z
m-6878 -901 c0 -27 -5 -43 -15 -46 -8 -4 -15 -14 -15 -24 0 -11 -5 -22 -10
-25 -6 -4 -17 -21 -25 -38 -28 -62 -63 -118 -89 -142 -14 -13 -26 -30 -26 -38
0 -8 -7 -20 -15 -27 -8 -7 -15 -20 -15 -30 0 -10 -7 -23 -15 -30 -8 -7 -15
-20 -15 -29 0 -22 -55 -75 -69 -67 -21 13 -11 56 19 86 22 21 30 39 30 64 0
19 6 39 14 43 8 4 15 17 17 28 2 11 14 24 26 30 13 5 27 21 33 35 18 43 43 85
52 88 4 2 8 10 8 18 0 9 16 36 35 61 19 25 35 52 35 59 0 11 14 21 33 23 4 1
7 -17 7 -39z m-1343 -252 c15 -14 23 -33 23 -54 0 -33 -22 -60 -39 -49 -13 7
-51 -30 -51 -50 0 -8 -9 -24 -20 -35 -11 -11 -20 -27 -20 -35 0 -8 -5 -15 -11
-15 -14 0 -3 73 17 114 8 16 14 34 14 40 0 19 44 106 54 106 5 0 20 -10 33
-22z m141 -3135 c2 -12 10 -27 18 -33 11 -10 14 -40 14 -134 0 -130 -10 -165
-35 -132 -8 11 -15 30 -15 42 0 12 -7 27 -15 34 -12 10 -15 37 -15 125 0 61 3
115 7 119 13 13 38 1 41 -21z m1131 -524 c23 -45 41 -89 41 -98 0 -9 7 -25 15
-35 19 -25 19 -65 1 -72 -8 -3 -26 3 -40 13 -21 15 -25 27 -26 64 0 37 -5 51
-30 75 -24 24 -29 37 -30 76 0 28 5 48 13 51 6 3 13 6 14 6 1 1 20 -36 42 -80z
m6861 -2343 c0 -22 -64 -97 -144 -169 -42 -38 -76 -73 -76 -78 0 -11 -160
-170 -188 -186 -26 -16 -62 -17 -62 -3 0 11 48 60 59 60 20 0 172 174 194 222
10 23 41 56 79 85 34 27 69 56 77 66 18 20 61 23 61 3z"/>
<path d="M4073 11853 c-34 -3 -44 -9 -49 -26 -7 -28 -93 -71 -140 -71 -23 0
-36 -5 -39 -16 -3 -9 -29 -32 -58 -50 -28 -19 -54 -37 -57 -41 -3 -3 -16 -10
-30 -14 -14 -4 -39 -18 -57 -31 -17 -13 -36 -24 -42 -24 -6 0 -18 -11 -27 -25
-9 -14 -28 -28 -43 -31 -14 -4 -43 -19 -63 -35 -20 -16 -41 -29 -46 -29 -5 0
-15 -7 -22 -15 -7 -8 -21 -15 -30 -15 -10 0 -42 -16 -71 -35 -30 -19 -57 -35
-61 -35 -20 0 -138 -116 -138 -135 0 -18 -30 -48 -75 -75 -22 -13 -46 -30 -53
-37 -7 -7 -21 -13 -31 -13 -9 0 -28 -17 -41 -39 -14 -21 -42 -51 -62 -67 -21
-15 -38 -32 -38 -37 0 -6 -17 -27 -37 -47 -56 -54 -89 -92 -101 -116 -6 -11
-26 -29 -46 -39 -19 -10 -40 -29 -47 -42 -14 -26 -69 -66 -127 -92 -12 -6 -27
-22 -34 -36 -6 -14 -15 -25 -20 -25 -4 0 -8 -5 -8 -11 0 -18 -52 -79 -67 -79
-8 0 -19 -13 -24 -30 -6 -16 -15 -30 -20 -30 -5 0 -9 -6 -9 -14 0 -7 -9 -25
-21 -40 -11 -14 -19 -31 -17 -37 4 -12 33 18 107 106 108 130 137 159 154 152
24 -9 22 -16 -28 -72 -52 -58 -60 -88 -13 -44 18 16 36 29 40 29 4 0 20 19 34
43 38 60 134 167 150 167 7 0 19 10 25 23 23 44 196 216 217 217 7 0 23 11 35
24 12 12 45 42 72 66 103 87 182 168 188 192 6 22 34 51 139 144 14 13 31 24
37 24 6 0 30 14 53 30 22 17 46 30 52 30 6 0 29 18 51 40 22 21 45 39 52 40 6
0 18 6 25 13 11 12 73 44 118 61 17 7 56 32 91 59 46 35 131 87 142 87 7 0 23
10 37 23 14 12 49 33 78 47 28 14 52 28 52 32 0 5 -3 7 -7 6 -5 -1 -27 -3 -50
-5z"/>
<path d="M2515 11128 c-45 -24 -115 -111 -109 -136 5 -20 -3 -33 -33 -49 -27
-15 -48 6 -40 39 4 13 2 29 -3 37 -14 23 -145 -114 -154 -161 -3 -20 -13 -41
-21 -48 -25 -21 -17 -30 26 -30 45 0 44 3 23 -82 -9 -38 16 -37 44 2 13 17 28
30 36 30 7 0 18 11 24 25 6 14 16 25 20 25 37 0 100 115 122 224 4 21 12 41
16 45 21 16 77 81 73 85 -2 3 -13 0 -24 -6z"/>
<path d="M3495 11098 c-22 -18 -46 -37 -53 -43 -7 -5 -22 -18 -33 -27 -10 -10
-21 -18 -24 -18 -2 0 -23 -19 -47 -42 -24 -24 -66 -63 -93 -88 -60 -53 -67
-63 -59 -84 5 -12 14 -6 40 28 18 24 47 49 64 54 16 6 30 18 30 27 0 8 21 36
46 61 41 41 49 45 79 40 29 -6 36 -3 45 16 7 13 33 42 58 65 l47 42 -30 1
c-20 0 -44 -11 -70 -32z"/>
<path d="M10328 7668 c2 -35 10 -77 18 -95 8 -17 14 -51 14 -75 0 -23 7 -61
15 -83 8 -22 14 -59 15 -81 0 -23 7 -58 15 -77 9 -22 15 -68 15 -116 0 -44 7
-100 14 -123 9 -24 17 -99 20 -168 3 -69 9 -147 15 -175 16 -82 13 -629 -4
-700 -8 -33 -14 -92 -15 -132 0 -39 -5 -84 -11 -100 -6 -15 -13 -55 -15 -88
-3 -33 -11 -90 -19 -127 -8 -37 -15 -84 -15 -105 -1 -21 -7 -49 -15 -63 -8
-14 -14 -39 -15 -56 0 -17 -7 -37 -15 -44 -11 -9 -15 -32 -15 -79 0 -39 -6
-78 -15 -95 -8 -15 -15 -40 -15 -55 0 -15 -7 -36 -15 -47 -8 -10 -15 -31 -15
-45 0 -15 -7 -32 -15 -39 -8 -7 -15 -22 -15 -34 -1 -11 -7 -32 -15 -46 -8 -14
-14 -35 -15 -48 0 -12 -7 -25 -15 -28 -8 -4 -15 -14 -15 -24 0 -11 -4 -21 -9
-24 -5 -4 -19 -27 -31 -54 -11 -26 -28 -60 -35 -75 -8 -16 -15 -36 -15 -44 0
-9 -20 -49 -45 -90 -25 -40 -45 -75 -45 -78 0 -2 -19 -32 -42 -67 -51 -75 -65
-98 -73 -118 -22 -52 -64 -129 -83 -150 -7 -8 -36 -51 -64 -95 -29 -44 -62
-91 -75 -105 -13 -14 -23 -32 -23 -42 0 -9 -6 -21 -12 -25 -7 -4 -35 -37 -63
-73 -27 -36 -68 -84 -92 -108 -24 -24 -43 -48 -43 -55 0 -7 -27 -41 -60 -75
-47 -50 -56 -64 -43 -69 11 -4 28 7 54 35 20 23 39 47 41 54 7 19 38 1 38 -22
0 -18 2 -19 20 -8 11 7 20 17 20 21 0 5 20 35 45 67 25 32 45 66 45 74 0 9 4
16 10 16 5 0 22 23 37 51 48 89 52 95 77 122 48 52 117 147 141 196 14 27 41
65 60 83 20 18 35 42 35 55 0 28 34 95 61 119 26 23 59 86 59 112 0 10 7 27
15 38 8 10 15 26 15 35 0 9 13 32 30 50 17 19 30 46 30 60 0 15 7 32 15 39 8
7 15 22 15 34 0 12 8 28 18 37 9 8 23 35 30 59 8 25 20 58 28 73 8 16 14 34
14 40 0 6 7 19 16 28 12 14 17 40 18 98 1 49 6 85 14 93 6 6 12 24 12 38 0 14
7 35 15 46 8 10 15 33 15 50 0 17 7 37 15 44 9 8 15 30 15 57 0 25 6 59 14 76
8 18 16 79 19 136 3 57 10 108 16 114 6 6 11 25 11 42 0 17 7 40 15 51 8 10
15 31 15 45 0 15 7 32 15 39 8 7 15 20 15 30 0 10 -7 20 -15 24 -21 8 -20 103
1 156 12 30 15 56 10 96 -5 44 -3 56 9 60 17 7 20 40 5 49 -16 10 -12 81 5 95
26 21 20 167 -8 232 -16 35 -21 60 -16 73 4 11 8 54 8 96 1 57 -3 80 -14 89
-10 9 -15 31 -15 72 0 33 -5 69 -12 81 -6 12 -11 39 -9 59 1 20 -5 53 -14 74
-17 42 -18 44 -6 63 7 11 13 9 30 -8 34 -34 41 -26 41 48 l0 70 -42 3 -43 3
-3 50 c-1 28 -9 64 -17 82 -8 17 -15 44 -15 60 0 16 -5 34 -11 40 -6 6 -13 39
-16 74 -3 35 -12 73 -19 84 -8 11 -14 39 -14 62 0 24 -3 43 -7 43 -5 0 -7 -28
-5 -62z"/>
<path d="M10611 7126 c-10 -12 -10 -28 2 -78 9 -35 18 -124 21 -198 3 -74 10
-166 16 -205 5 -38 9 -96 10 -127 0 -32 4 -58 8 -58 34 0 44 89 16 142 -12 23
-14 44 -10 77 4 25 7 53 6 61 -1 8 -4 61 -6 118 -3 58 -11 114 -19 129 -8 15
-13 29 -12 32 2 3 9 19 17 34 12 25 12 31 -2 55 -20 33 -31 37 -47 18z"/>
<path d="M8472 2465 c-17 -6 -37 -16 -44 -23 -7 -7 -18 -12 -26 -12 -7 0 -27
-13 -45 -30 -18 -16 -38 -30 -45 -30 -7 0 -23 -9 -35 -21 -12 -12 -38 -31 -57
-44 -19 -12 -41 -30 -49 -39 -7 -9 -24 -16 -38 -16 -29 0 -63 -17 -63 -30 0
-16 46 -12 60 5 7 8 18 15 25 15 7 0 18 7 25 15 7 8 22 15 34 15 12 0 35 14
51 30 16 17 37 30 47 30 10 0 18 4 18 9 0 5 10 13 23 17 12 4 38 20 58 35 20
16 42 29 48 29 16 0 54 36 50 47 -2 5 -19 4 -37 -2z"/>
</g>
</svg>
